<svg width="24" height="25" viewBox="0 0 24 25" fill="none" xmlns="http://www.w3.org/2000/svg">
<path d="M6.44784 9.41375C6.76219 6.58466 9.15349 4.44434 12 4.44434V4.44434C14.8465 4.44434 17.2378 6.58466 17.5522 9.41375L17.804 11.68C17.8072 11.7089 17.8088 11.7233 17.8104 11.7376C17.9394 12.8613 18.3051 13.9449 18.8836 14.9168C18.8909 14.9292 18.8984 14.9417 18.9133 14.9666L19.4914 15.93C20.0159 16.8042 20.2782 17.2414 20.2216 17.6002C20.1839 17.839 20.061 18.056 19.8757 18.2112C19.5971 18.4443 19.0873 18.4443 18.0678 18.4443H5.93223C4.91268 18.4443 4.40291 18.4443 4.12434 18.2112C3.93897 18.056 3.81609 17.839 3.77841 17.6002C3.72179 17.2414 3.98407 16.8042 4.50862 15.93L5.08665 14.9666C5.10161 14.9417 5.10909 14.9292 5.11644 14.9168C5.69488 13.9449 6.06064 12.8613 6.18959 11.7376C6.19123 11.7233 6.19283 11.7089 6.19604 11.68L6.44784 9.41375Z" stroke="#E55B1C" stroke-width="1.5"/>
<path d="M9.10222 18.8502C9.27315 19.5944 9.64978 20.252 10.1737 20.7211C10.6976 21.1901 11.3396 21.4443 12 21.4443C12.6604 21.4443 13.3024 21.1901 13.8263 20.7211C14.3502 20.252 14.7269 19.5944 14.8978 18.8502" stroke="#E55B1C" stroke-width="1.5" stroke-linecap="round"/>
</svg>
