<svg width="14" height="15" viewBox="0 0 14 15" fill="none" xmlns="http://www.w3.org/2000/svg">
<path d="M8.33325 2.83333C8.33325 2.47971 8.19278 2.14057 7.94273 1.89052C7.69268 1.64048 7.35354 1.5 6.99992 1.5C6.6463 1.5 6.30716 1.64048 6.05711 1.89052C5.80706 2.14057 5.66658 2.47971 5.66658 2.83333H8.33325ZM4.66658 2.83333C4.66658 2.52692 4.72694 2.2235 4.8442 1.94041C4.96146 1.65731 5.13333 1.40009 5.35 1.18342C5.56667 0.966747 5.8239 0.794875 6.10699 0.677614C6.39008 0.560353 6.6935 0.5 6.99992 0.5C7.30634 0.5 7.60975 0.560353 7.89285 0.677614C8.17594 0.794875 8.43316 0.966747 8.64983 1.18342C8.8665 1.40009 9.03838 1.65731 9.15564 1.94041C9.2729 2.2235 9.33325 2.52692 9.33325 2.83333H13.1666C13.2992 2.83333 13.4264 2.88601 13.5201 2.97978C13.6139 3.07355 13.6666 3.20072 13.6666 3.33333C13.6666 3.46594 13.6139 3.59312 13.5201 3.68689C13.4264 3.78065 13.2992 3.83333 13.1666 3.83333H12.2866L11.9519 7.29667C11.6437 7.14082 11.3178 7.02264 10.9813 6.94467L11.2826 3.83333H2.71725L3.48925 11.8113C3.52521 12.1824 3.69808 12.5268 3.97416 12.7774C4.25025 13.028 4.60975 13.1667 4.98258 13.1667H6.15459C6.34545 13.5324 6.58744 13.8691 6.87325 14.1667H4.98258C4.36116 14.1667 3.76199 13.9354 3.30188 13.5177C2.84178 13.1 2.55374 12.5259 2.49392 11.9073L1.71325 3.83333H0.833252C0.700644 3.83333 0.573467 3.78065 0.479698 3.68689C0.38593 3.59312 0.333252 3.46594 0.333252 3.33333C0.333252 3.20072 0.38593 3.07355 0.479698 2.97978C0.573467 2.88601 0.700644 2.83333 0.833252 2.83333H4.66658ZM13.6666 11.1667C13.6666 12.1391 13.2803 13.0718 12.5926 13.7594C11.905 14.447 10.9724 14.8333 9.99992 14.8333C9.02746 14.8333 8.09483 14.447 7.40719 13.7594C6.71956 13.0718 6.33325 12.1391 6.33325 11.1667C6.33325 10.1942 6.71956 9.26157 7.40719 8.57394C8.09483 7.88631 9.02746 7.5 9.99992 7.5C10.9724 7.5 11.905 7.88631 12.5926 8.57394C13.2803 9.26157 13.6666 10.1942 13.6666 11.1667ZM8.90259 9.59733C8.83999 9.53474 8.7551 9.49958 8.66658 9.49958C8.57807 9.49958 8.49318 9.53474 8.43058 9.59733C8.36799 9.65992 8.33283 9.74482 8.33283 9.83333C8.33283 9.92185 8.36799 10.0067 8.43058 10.0693L9.52858 11.1667L8.43058 12.264C8.36799 12.3266 8.33283 12.4115 8.33283 12.5C8.33283 12.5885 8.36799 12.6734 8.43058 12.736C8.49318 12.7986 8.57807 12.8338 8.66658 12.8338C8.7551 12.8338 8.83999 12.7986 8.90259 12.736L9.99992 11.638L11.0973 12.736C11.1282 12.767 11.165 12.7916 11.2055 12.8083C11.246 12.8251 11.2894 12.8338 11.3333 12.8338C11.3771 12.8338 11.4205 12.8251 11.461 12.8083C11.5015 12.7916 11.5383 12.767 11.5693 12.736C11.6002 12.705 11.6248 12.6682 11.6416 12.6277C11.6584 12.5872 11.667 12.5438 11.667 12.5C11.667 12.4562 11.6584 12.4128 11.6416 12.3723C11.6248 12.3318 11.6002 12.295 11.5693 12.264L10.4713 11.1667L11.5693 10.0693C11.6318 10.0067 11.667 9.92185 11.667 9.83333C11.667 9.74482 11.6318 9.65992 11.5693 9.59733C11.5067 9.53474 11.4218 9.49958 11.3333 9.49958C11.2447 9.49958 11.1598 9.53474 11.0973 9.59733L9.99992 10.6953L8.90259 9.59733Z" fill="#248E9B"/>
</svg>
