<svg width="48" height="48" viewBox="0 0 48 48" fill="none" xmlns="http://www.w3.org/2000/svg">
<circle cx="24" cy="24" r="23" fill="black" fill-opacity="0.8" stroke="white" stroke-width="2"/>
<path d="M26.163 17.7977C26.1623 17.7985 26.1615 17.7992 26.1608 17.8L26.1608 17.8L16.891 27.0697C16.8794 27.0813 16.8673 27.0934 16.8547 27.1059C16.7208 27.2388 16.5386 27.4197 16.4089 27.6488C16.2792 27.8778 16.2178 28.1273 16.1727 28.3104C16.1685 28.3276 16.1644 28.3442 16.1604 28.3602L15.2511 31.9972C15.2486 32.0073 15.246 32.0179 15.2432 32.0289C15.2108 32.1575 15.1634 32.346 15.1469 32.5145C15.1278 32.7098 15.1196 33.1539 15.4828 33.5172C15.846 33.8804 16.2902 33.8722 16.4855 33.8531C16.6539 33.8366 16.8425 33.7891 16.9711 33.7568C16.9821 33.754 16.9927 33.7513 17.0028 33.7488L20.6398 32.8396C20.6557 32.8356 20.6724 32.8315 20.6896 32.8273C20.8727 32.7822 21.1221 32.7208 21.3512 32.5911L20.8585 31.7209L21.3512 32.5911C21.5802 32.4614 21.7612 32.2791 21.8941 32.1453C21.9066 32.1327 21.9186 32.1206 21.9302 32.1089L21.2231 31.4018L21.9303 32.1089L21.9303 32.1089L31.2 22.8392C31.2123 22.8269 31.2245 22.8147 31.2368 22.8024C31.501 22.5383 31.765 22.2745 31.9546 22.026C32.1706 21.7428 32.3818 21.3657 32.3818 20.875C32.3818 20.3843 32.1706 20.0072 31.9546 19.724C31.765 19.4755 31.501 19.2117 31.2368 18.9476C31.2245 18.9354 31.2123 18.9231 31.2 18.9108L30.0891 17.8C30.0769 17.7877 30.0646 17.7754 30.0523 17.7631C29.7883 17.499 29.5244 17.235 29.2759 17.0454C28.9928 16.8294 28.6156 16.6182 28.125 16.6182C27.6343 16.6182 27.2571 16.8294 26.974 17.0454C26.7255 17.235 26.4616 17.499 26.1976 17.7631C26.1861 17.7747 26.1745 17.7862 26.163 17.7977Z" stroke="white" stroke-width="2"/>
<path d="M25.1041 19.0625L29.9375 23.8958" stroke="white" stroke-width="2"/>
</svg>
