<svg width="24" height="24" viewBox="0 0 24 24" fill="none" xmlns="http://www.w3.org/2000/svg">
<path d="M12 24C13.5762 24.002 15.1372 23.6926 16.5934 23.0894C18.0495 22.4862 19.3721 21.6012 20.4852 20.4852C21.6012 19.3721 22.4862 18.0495 23.0894 16.5934C23.6926 15.1372 24.002 13.5762 24 12C24.002 10.4238 23.6925 8.86283 23.0893 7.40666C22.4861 5.95049 21.6011 4.62787 20.4852 3.51481C19.3721 2.39882 18.0495 1.51381 16.5934 0.910621C15.1372 0.307433 13.5762 -0.00203216 12 1.00419e-05C10.4238 -0.00199929 8.86283 0.307481 7.40666 0.910667C5.95049 1.51385 4.62787 2.39885 3.51481 3.51481C2.39885 4.62787 1.51385 5.95049 0.910667 7.40666C0.307481 8.86283 -0.00199929 10.4238 1.00419e-05 12C-0.00203216 13.5762 0.307433 15.1372 0.910621 16.5934C1.51381 18.0495 2.39882 19.3721 3.51481 20.4852C4.62787 21.6011 5.95049 22.4861 7.40666 23.0893C8.86283 23.6925 10.4238 24.002 12 24Z" fill="#F8D5DB"/>
<path fill-rule="evenodd" clip-rule="evenodd" d="M11.8164 19.7422C12.2981 19.7422 12.7602 19.5508 13.1008 19.2102C13.4414 18.8695 13.6328 18.4075 13.6328 17.9258C13.6328 17.444 13.4414 16.982 13.1008 16.6414C12.7602 16.3007 12.2981 16.1094 11.8164 16.1094C11.3347 16.1094 10.8727 16.3007 10.532 16.6414C10.1914 16.982 10 17.444 10 17.9258C10 18.4075 10.1914 18.8695 10.532 19.2102C10.8727 19.5508 11.3347 19.7422 11.8164 19.7422Z" fill="#DB2744"/>
<path d="M11.8145 4V13.6875V4Z" fill="#F8D5DB"/>
<path d="M11.8145 4V13.6875" stroke="#DB2744" stroke-width="2.42188" stroke-linecap="round" stroke-linejoin="round"/>
</svg>
