<svg width="24" height="24" viewBox="0 0 24 24" fill="none" xmlns="http://www.w3.org/2000/svg">
<path d="M15.0083 4.77148H19.0212C20.6955 4.77148 22.0537 6.1297 22.0537 7.80483V16.9666C22.0537 18.6418 20.6955 20 19.0212 20H15" stroke="#E55B1C" stroke-width="1.5" stroke-linecap="round" stroke-linejoin="round"/>
<path d="M3 11.25C2.58579 11.25 2.25 11.5858 2.25 12C2.25 12.4142 2.58579 12.75 3 12.75V11.25ZM15.5303 12.5303C15.8232 12.2374 15.8232 11.7626 15.5303 11.4697L10.7574 6.6967C10.4645 6.40381 9.98959 6.40381 9.6967 6.6967C9.40381 6.98959 9.40381 7.46447 9.6967 7.75736L13.9393 12L9.6967 16.2426C9.40381 16.5355 9.40381 17.0104 9.6967 17.3033C9.98959 17.5962 10.4645 17.5962 10.7574 17.3033L15.5303 12.5303ZM3 12.75L15 12.75V11.25L3 11.25V12.75Z" fill="#E55B1C"/>
</svg>
