<svg width="32" height="33" viewBox="0 0 32 33" fill="none" xmlns="http://www.w3.org/2000/svg">
<path d="M12.5413 22.5H9C7.4087 22.5 5.88258 21.8679 4.75736 20.7426C3.63214 19.6174 3 18.0913 3 16.5C3 14.9087 3.63214 13.3826 4.75736 12.2574C5.88258 11.1321 7.4087 10.5 9 10.5H12.4631M19.5369 10.5H23C24.5913 10.5 26.1174 11.1321 27.2426 12.2574C28.3679 13.3826 29 14.9087 29 16.5C29 18.0913 28.3679 19.6174 27.2426 20.7426C26.1174 21.8679 24.5913 22.5 23 22.5H19.4587M10.5669 16.5H21.5581" stroke="#E55B1C" stroke-width="1.5" stroke-linecap="round" stroke-linejoin="round"/>
</svg>
