<?xml version="1.0" encoding="UTF-8"?>
<svg enable-background="new 0 0 50 50" version="1.1" viewBox="0 0 50 50" xml:space="preserve" xmlns="http://www.w3.org/2000/svg">
<style type="text/css">
	.st0{fill:url(#a);}
	.st1{fill:url(#SVGID_00000020388663949721053140000003185247943225945993_);}
	.st2{fill:url(#SVGID_00000049939240079969363890000014094773229509757581_);}
	.st3{fill:url(#SVGID_00000080927085052076120470000005511779197706041234_);}
</style>

	
		
			<linearGradient id="a" x1="4.0137" x2="21.286" y1="1912.6" y2="1942" gradientTransform="translate(0 -1900)" gradientUnits="userSpaceOnUse">
			<stop stop-color="#FDB903" offset="0"/>
			<stop stop-color="#FCB503" offset=".1944"/>
			<stop stop-color="#FAAA04" offset=".3735"/>
			<stop stop-color="#F79706" offset=".5466"/>
			<stop stop-color="#F17D08" offset=".7158"/>
			<stop stop-color="#EB5C0B" offset=".8809"/>
			<stop stop-color="#E84C0C" offset=".9474"/>
		</linearGradient>
		<path class="st0" d="m-1.89 10.28 18.65 29.88c0.08 0.13 0.22 0.21 0.38 0.21h6.24c0.34 0 0.55-0.35 0.39-0.62l-16.85-29.9c-0.08-0.14-0.22-0.22-0.39-0.22h-8.05c-0.33 0-0.55 0.37-0.37 0.65z"/>
		
			<linearGradient id="b" x1="46.037" x2="36.454" y1="1913.2" y2="1925.8" gradientTransform="translate(0 -1900)" gradientUnits="userSpaceOnUse">
			<stop stop-color="#13DAEA" offset="0"/>
			<stop stop-color="#14D2E5" offset=".1367"/>
			<stop stop-color="#17BED7" offset=".3434"/>
			<stop stop-color="#1B9CC0" offset=".5945"/>
			<stop stop-color="#216DA0" offset=".8781"/>
			<stop stop-color="#236098" offset=".9474"/>
		</linearGradient>
		<path d="m51.89 10.28-8.8 14.11-6.87-2.36 6.87-12.16c0.08-0.14 0.22-0.22 0.39-0.22h8.05c0.32-0.02 0.54 0.35 0.36 0.63z" fill="url(#b)"/>
		
			<linearGradient id="c" x1="39.884" x2="28.383" y1="1922.8" y2="1941.6" gradientTransform="translate(0 -1900)" gradientUnits="userSpaceOnUse">
			<stop stop-color="#FDB903" offset="0"/>
			<stop stop-color="#FCB503" offset=".1962"/>
			<stop stop-color="#FAAA05" offset=".375"/>
			<stop stop-color="#F79807" offset=".547"/>
			<stop stop-color="#F27E0A" offset=".7147"/>
			<stop stop-color="#EB5D0D" offset=".878"/>
			<stop stop-color="#E84C0F" offset=".9474"/>
		</linearGradient>
		<path d="m43.08 24.39-9.85 15.77c-0.08 0.13-0.22 0.21-0.38 0.21h-6.24c-0.34 0-0.55-0.35-0.39-0.62l9.99-17.71 6.87 2.35z" fill="url(#c)"/>
		
			<linearGradient id="d" x1="25.037" x2="25.075" y1="1909" y2="1934.2" gradientTransform="translate(0 -1900)" gradientUnits="userSpaceOnUse">
			<stop stop-color="#13DAEA" offset="0"/>
			<stop stop-color="#13D8E9" offset=".0298"/>
			<stop stop-color="#15C9DF" offset=".1899"/>
			<stop stop-color="#1AA3C5" offset=".4961"/>
			<stop stop-color="#22659C" offset=".9138"/>
			<stop stop-color="#236098" offset=".9474"/>
		</linearGradient>
		<path d="m39.16 10.34-12.63 22.04c-0.65 1.13-2.34 1.13-2.98 0l-12.63-22.04c-0.17-0.29 0.05-0.62 0.39-0.62h7.89c0.17 0 0.31 0.09 0.39 0.23 0 0 3.59 6.97 4.94 9.58 0.21 0.4 0.79 0.39 0.99 0 1.34-2.61 4.96-9.58 4.96-9.58 0.08-0.14 0.22-0.23 0.39-0.23h7.89c0.35-0.01 0.57 0.34 0.4 0.62z" fill="url(#d)"/>
	

</svg>
