<svg width="22" height="22" viewBox="0 0 22 22" fill="none" xmlns="http://www.w3.org/2000/svg">
<path d="M21.4251 8.56527C21.3342 8.28532 21.1631 8.03827 20.9328 7.8549C20.7026 7.67153 20.4236 7.55994 20.1304 7.53402L14.5626 7.05402L12.3801 1.86402C12.2664 1.59169 12.0748 1.35907 11.8292 1.19545C11.5836 1.03183 11.2952 0.944519 11.0001 0.944519C10.705 0.944519 10.4165 1.03183 10.1709 1.19545C9.92537 1.35907 9.7337 1.59169 9.62007 1.86402L7.44413 7.05402L1.86976 7.53683C1.57542 7.56157 1.29493 7.67265 1.06347 7.85616C0.832008 8.03967 0.65988 8.28743 0.568668 8.56837C0.477457 8.84931 0.471222 9.15093 0.550747 9.43541C0.630272 9.71988 0.792015 9.97454 1.01569 10.1675L5.24476 13.8631L3.97726 19.3512C3.91023 19.6384 3.92936 19.939 4.03224 20.2154C4.13512 20.4918 4.31719 20.7317 4.55569 20.9052C4.79419 21.0786 5.07853 21.1779 5.37317 21.1907C5.66781 21.2034 5.95967 21.1291 6.21226 20.9768L10.9935 18.0706L15.7851 20.9768C16.0377 21.1291 16.3295 21.2034 16.6242 21.1907C16.9188 21.1779 17.2031 21.0786 17.4416 20.9052C17.6801 20.7317 17.8622 20.4918 17.9651 20.2154C18.068 19.939 18.0871 19.6384 18.0201 19.3512L16.7535 13.8575L20.9816 10.1675C21.2053 9.97387 21.3667 9.71849 21.4456 9.43341C21.5245 9.14834 21.5174 8.8463 21.4251 8.56527ZM19.9982 9.03402L15.7701 12.724C15.5643 12.903 15.4112 13.1347 15.3273 13.3942C15.2434 13.6538 15.2318 13.9312 15.2938 14.1968L16.5641 19.6943L11.7763 16.7881C11.5427 16.6458 11.2745 16.5706 11.001 16.5706C10.7275 16.5706 10.4593 16.6458 10.2257 16.7881L5.44444 19.6943L6.70632 14.2006C6.76834 13.935 6.75676 13.6575 6.67285 13.398C6.58893 13.1385 6.43585 12.9068 6.23007 12.7278L2.00007 9.03964C1.99973 9.03684 1.99973 9.03401 2.00007 9.03121L7.57257 8.54933C7.84463 8.52535 8.10499 8.42754 8.32555 8.26646C8.54611 8.10538 8.7185 7.88713 8.82413 7.63527L11.0001 2.45183L13.1751 7.63527C13.2807 7.88713 13.4531 8.10538 13.6737 8.26646C13.8942 8.42754 14.1546 8.52535 14.4266 8.54933L20.0001 9.03121V9.03777L19.9982 9.03402Z" fill="#E55B1C"/>
</svg>
