<svg width="32" height="33" viewBox="0 0 32 33" fill="none" xmlns="http://www.w3.org/2000/svg">
<path d="M28.6275 5.00835L2.83061 15.1429C2.55546 15.251 2.37451 15.5165 2.37451 15.8121C2.37451 16.1057 2.55302 16.3698 2.82545 16.4792L9.28084 19.0729C9.5197 19.1689 9.79039 19.142 10.0057 19.001L24.6556 9.407C24.9371 9.22267 25.3107 9.4246 25.3107 9.76107C25.3107 9.88362 25.2576 10.0001 25.1651 10.0805L12.6658 20.9427C12.4937 21.0922 12.3949 21.309 12.3949 21.537V28.9862H12.8443C13.1293 28.9862 13.3921 28.8322 13.5313 28.5835L16.0386 24.1061L23.1274 28.853C23.257 28.9398 23.4095 28.9862 23.5655 28.9862H23.6185C23.9816 28.9862 24.2976 28.7379 24.3835 28.3851L29.6804 6.62975C29.6953 6.56877 29.7028 6.50624 29.7028 6.44349V5.74118C29.7028 5.18623 29.1441 4.80544 28.6275 5.00835Z" stroke="#E55B1C" stroke-width="1.5"/>
</svg>
