<svg width="32" height="33" viewBox="0 0 32 33" fill="none" xmlns="http://www.w3.org/2000/svg">
<path d="M19.7582 5.43498L19.7583 5.43479C19.7668 5.40306 19.7814 5.37332 19.8014 5.34725C19.8214 5.32119 19.8463 5.29932 19.8748 5.2829C19.9032 5.26647 19.9346 5.25581 19.9672 5.25152C19.9997 5.24724 20.0328 5.24941 20.0645 5.25791L20.0645 5.25793L20.0694 5.2592C21.7942 5.70923 23.3679 6.61091 24.6284 7.87137C25.8889 9.13184 26.7905 10.7055 27.2406 12.4303L27.2405 12.4303L27.2418 12.4352C27.2503 12.4669 27.2525 12.5 27.2482 12.5326C27.2439 12.5651 27.2333 12.5965 27.2169 12.625C27.2004 12.6534 27.1786 12.6784 27.1525 12.6983C27.1269 12.718 27.0977 12.7325 27.0666 12.741C27.0445 12.7467 27.0218 12.7496 26.999 12.7497C26.9442 12.7496 26.891 12.7315 26.8475 12.6981C26.8043 12.6649 26.7731 12.6186 26.7587 12.5661C26.3304 10.9247 25.4725 9.42713 24.2731 8.22752C23.0735 7.02764 21.5757 6.16927 19.9339 5.74084C19.9027 5.73232 19.8735 5.71784 19.8478 5.69818C19.8217 5.67821 19.7998 5.65329 19.7833 5.62484C19.7669 5.5964 19.7562 5.56499 19.7519 5.53241C19.7476 5.49983 19.7497 5.46673 19.7582 5.43498ZM19.8693 4.50794C19.9995 4.49079 20.1319 4.49948 20.2588 4.5335L19.0338 5.241C19.0677 5.11409 19.1263 4.99511 19.2063 4.89086C19.2862 4.78661 19.3859 4.69914 19.4997 4.63344C19.6134 4.56773 19.739 4.52509 19.8693 4.50794ZM23.2417 13.4346L23.2418 13.4352C23.2503 13.4669 23.2525 13.5 23.2482 13.5326C23.2439 13.5651 23.2333 13.5965 23.2169 13.625C23.2004 13.6534 23.1786 13.6784 23.1525 13.6983C23.1269 13.718 23.0977 13.7325 23.0666 13.741C23.0445 13.7467 23.0218 13.7496 22.999 13.7497C22.9442 13.7496 22.891 13.7315 22.8475 13.6981C22.8039 13.6646 22.7725 13.6176 22.7582 13.5644L22.0338 13.7585L22.7584 13.5651C22.2293 11.5823 20.9195 10.2708 18.9361 9.74141C18.9043 9.73293 18.8746 9.71828 18.8485 9.69831C18.8224 9.67833 18.8006 9.65341 18.7841 9.62498C18.7677 9.59654 18.757 9.56515 18.7527 9.53258C18.7484 9.50002 18.7505 9.46692 18.759 9.43519C18.7675 9.40346 18.7821 9.3737 18.8021 9.34763C18.8221 9.32155 18.847 9.29966 18.8754 9.28322C18.9038 9.26677 18.9352 9.25609 18.9678 9.25178C19.0004 9.24747 19.0335 9.24961 19.0652 9.25809C21.2009 9.82883 22.671 11.2989 23.2417 13.4346ZM27.4896 20.9917L27.4895 20.9917L27.4976 20.9952C27.7449 21.1026 27.9509 21.287 28.0848 21.521C28.2182 21.7541 28.2729 22.024 28.2409 22.2906C28.0411 23.8023 27.2983 25.1898 26.1509 26.1943C25.0025 27.1996 23.5275 27.7525 22.0014 27.7497H22C12.4892 27.7497 4.75001 20.0105 4.75001 10.4997L4.75001 10.4984C4.74727 8.97221 5.30019 7.49721 6.30549 6.34889C7.30994 5.20152 8.6974 4.45869 10.2091 4.25884C10.4757 4.22696 10.7456 4.28183 10.9787 4.41534C11.2127 4.54939 11.3971 4.75552 11.5044 5.00297L11.5043 5.00299L11.5082 5.01173L14.0888 10.764V10.7723L14.1493 10.9137C14.2304 11.1032 14.2635 11.3097 14.2455 11.515C14.2276 11.719 14.1599 11.9154 14.0483 12.0871C14.0429 12.095 14.0351 12.1056 14.022 12.1223L11.431 15.2033L11.1159 15.5779L11.3321 16.0172C12.3427 18.0707 14.4549 20.1659 16.5311 21.1744L16.9722 21.3886L17.3453 21.0705L20.3839 18.4801C20.3843 18.4797 20.3848 18.4793 20.3852 18.479C20.3926 18.4728 20.4003 18.4671 20.4083 18.4618L20.4112 18.4599C20.5841 18.3446 20.783 18.2742 20.9899 18.2552C21.1937 18.2363 21.399 18.2679 21.5877 18.3469L21.5931 18.3494L21.5931 18.3495L21.6008 18.3529L27.4896 20.9917Z" stroke="#E55B1C" stroke-width="1.5"/>
</svg>
