<svg width="24" height="24" viewBox="0 0 24 24" fill="none" xmlns="http://www.w3.org/2000/svg">
<rect width="24" height="24" rx="4" fill="#E55B1C"/>
<path d="M18.5306 9.03081L10.5306 17.0308C10.4609 17.1007 10.3781 17.1562 10.287 17.1941C10.1958 17.2319 10.0981 17.2514 9.99935 17.2514C9.90064 17.2514 9.8029 17.2319 9.71173 17.1941C9.62057 17.1562 9.53778 17.1007 9.4681 17.0308L5.9681 13.5308C5.89833 13.461 5.84299 13.3782 5.80524 13.2871C5.76748 13.1959 5.74805 13.0982 5.74805 12.9996C5.74805 12.9009 5.76748 12.8032 5.80524 12.7121C5.84299 12.6209 5.89833 12.5381 5.9681 12.4683C6.03786 12.3985 6.12069 12.3432 6.21184 12.3055C6.30299 12.2677 6.40069 12.2483 6.49935 12.2483C6.59801 12.2483 6.69571 12.2677 6.78686 12.3055C6.87801 12.3432 6.96083 12.3985 7.0306 12.4683L9.99997 15.4377L17.4693 7.96956C17.6102 7.82867 17.8013 7.74951 18.0006 7.74951C18.1999 7.74951 18.391 7.82867 18.5318 7.96956C18.6727 8.11046 18.7519 8.30156 18.7519 8.50081C18.7519 8.70007 18.6727 8.89117 18.5318 9.03206L18.5306 9.03081Z" fill="white"/>
</svg>
