<?xml version="1.0" encoding="utf-8"?>
<!-- Generator: Adobe Illustrator 26.4.1, SVG Export Plug-In . SVG Version: 6.00 Build 0)  -->
<svg version="1.1" id="Слой_1" xmlns="http://www.w3.org/2000/svg" xmlns:xlink="http://www.w3.org/1999/xlink" x="0px" y="0px"
	 viewBox="0 0 50 50" style="enable-background:new 0 0 50 50;" xml:space="preserve">
<style type="text/css">
	.st0{fill:url(#SVGID_1_);}
	.st1{fill:url(#SVGID_00000012446745529722379030000016177314771225414075_);}
	.st2{fill:url(#SVGID_00000068666300441539616050000009739887347637671081_);}
	.st3{fill:url(#SVGID_00000116229674403285107840000016943776402568806055_);}
</style>
<g id="Слой_2_00000165211696084053069140000018294188322491517874_">
	<g>
		
			<linearGradient id="SVGID_1_" gradientUnits="userSpaceOnUse" x1="8.829" y1="-915.4415" x2="22.1382" y2="-938.1089" gradientTransform="matrix(1 0 0 -1 0 -899.9805)">
			<stop  offset="0" style="stop-color:#FDB903"/>
			<stop  offset="0.1944" style="stop-color:#FCB503"/>
			<stop  offset="0.3735" style="stop-color:#FAAA04"/>
			<stop  offset="0.5466" style="stop-color:#F79706"/>
			<stop  offset="0.7158" style="stop-color:#F17D08"/>
			<stop  offset="0.8809" style="stop-color:#EB5C0B"/>
			<stop  offset="0.9474" style="stop-color:#E84C0C"/>
		</linearGradient>
		<path class="st0" d="M4.28,13.66l14.37,23.02c0.06,0.1,0.17,0.16,0.29,0.16h4.81c0.26,0,0.42-0.27,0.3-0.48L11.07,13.33
			c-0.06-0.11-0.17-0.17-0.3-0.17h-6.2C4.31,13.16,4.14,13.44,4.28,13.66z"/>
		
			<linearGradient id="SVGID_00000011006112636498269350000002377624504616667051_" gradientUnits="userSpaceOnUse" x1="41.2032" y1="-915.9211" x2="33.8194" y2="-925.6351" gradientTransform="matrix(1 0 0 -1 0 -899.9805)">
			<stop  offset="0" style="stop-color:#13DAEA"/>
			<stop  offset="0.1367" style="stop-color:#14D2E5"/>
			<stop  offset="0.3434" style="stop-color:#17BED7"/>
			<stop  offset="0.5945" style="stop-color:#1B9CC0"/>
			<stop  offset="0.8781" style="stop-color:#216DA0"/>
			<stop  offset="0.9474" style="stop-color:#236098"/>
		</linearGradient>
		<path style="fill:url(#SVGID_00000011006112636498269350000002377624504616667051_);" d="M45.72,13.66l-6.78,10.87l-5.29-1.82
			l5.29-9.37c0.06-0.11,0.17-0.17,0.3-0.17h6.2C45.69,13.16,45.86,13.44,45.72,13.66z"/>
		
			<linearGradient id="SVGID_00000091729888068365433360000004417692028405024161_" gradientUnits="userSpaceOnUse" x1="36.4709" y1="-923.3008" x2="27.6087" y2="-937.7982" gradientTransform="matrix(1 0 0 -1 0 -899.9805)">
			<stop  offset="0" style="stop-color:#FDB903"/>
			<stop  offset="0.1962" style="stop-color:#FCB503"/>
			<stop  offset="0.375" style="stop-color:#FAAA05"/>
			<stop  offset="0.547" style="stop-color:#F79807"/>
			<stop  offset="0.7147" style="stop-color:#F27E0A"/>
			<stop  offset="0.878" style="stop-color:#EB5D0D"/>
			<stop  offset="0.9474" style="stop-color:#E84C0F"/>
		</linearGradient>
		<path style="fill:url(#SVGID_00000091729888068365433360000004417692028405024161_);" d="M38.93,24.53l-7.59,12.15
			c-0.06,0.1-0.17,0.16-0.29,0.16h-4.81c-0.26,0-0.42-0.27-0.3-0.48l7.7-13.65L38.93,24.53z"/>
		
			<linearGradient id="SVGID_00000127763926262493952220000012358012983763186819_" gradientUnits="userSpaceOnUse" x1="25.0311" y1="-912.6673" x2="25.0601" y2="-932.1069" gradientTransform="matrix(1 0 0 -1 0 -899.9805)">
			<stop  offset="0" style="stop-color:#13DAEA"/>
			<stop  offset="0.0298" style="stop-color:#13D8E9"/>
			<stop  offset="0.1899" style="stop-color:#15C9DF"/>
			<stop  offset="0.4961" style="stop-color:#1AA3C5"/>
			<stop  offset="0.9138" style="stop-color:#22659C"/>
			<stop  offset="0.9474" style="stop-color:#236098"/>
		</linearGradient>
		<path style="fill:url(#SVGID_00000127763926262493952220000012358012983763186819_);" d="M35.91,13.7l-9.73,16.99
			c-0.5,0.87-1.8,0.87-2.3,0L14.15,13.7c-0.13-0.22,0.04-0.48,0.3-0.48h6.08c0.13,0,0.24,0.07,0.3,0.18c0,0,2.77,5.37,3.81,7.38
			c0.16,0.31,0.61,0.3,0.76,0c1.03-2.01,3.82-7.38,3.82-7.38c0.06-0.11,0.17-0.18,0.3-0.18h6.08C35.87,13.22,36.04,13.49,35.91,13.7
			z"/>
	</g>
</g>
</svg>
